<svg width="1440" height="1024" viewBox="0 0 1440 1024" fill="none" xmlns="http://www.w3.org/2000/svg">
<g clip-path="url(#clip0_7_366)">
<path opacity="0.5" d="M735.635 37.6942C615.697 138.217 597.111 328.298 515.881 468.527C487.604 517.322 451.067 560.992 432.004 615.123C388.238 739.026 448.472 879.572 529.093 977.981C567.536 1024.93 612.44 1067.94 666.77 1087.72C708.55 1102.94 753.348 1103.57 797.325 1103.97L1567.79 1111.9C1653.81 1112.77 1749.39 1109.62 1811.24 1043.21C1853.87 997.478 1871.18 930.692 1885.88 866.944C1903.93 788.613 1920.3 703.546 1892.2 628.94C1860.11 543.582 1778.96 495.21 1728.55 421.555C1646.74 302.223 1648.62 121.731 1544.44 26.4664C1495.8 -17.9959 1431.62 -35.4321 1369.08 -44.1502C1251.18 -60.6089 1139.51 -29.5408 1023.72 -33.8734C924.756 -37.572 817.739 -31.1259 735.635 37.6942Z" fill="#E7ECFF"/>
<path opacity="0.24" d="M977.078 933.613C930.629 938.283 882.755 943.419 841.881 966.264C836.41 969.328 830.856 972.942 827.837 978.458C821.78 989.553 828.655 1004.18 839.324 1010.86C849.993 1017.53 863.156 1018.29 875.712 1018.84C1099.28 1028.59 1323.18 1024.76 1546.94 1020.96C1611.92 1019.86 1677.92 1018.59 1740.19 999.718C1751.39 996.337 1763.69 991.265 1767.9 980.212C1773.42 965.757 1760.84 949.737 1746.17 945.236C1731.5 940.735 1715.84 944.095 1700.66 946.06C1647.97 952.886 1594.81 942.446 1542.35 934.099C1439.64 917.784 1333.07 904.512 1229.05 902.039C1193.58 901.215 1163.29 913.515 1128.58 918.376C1078.46 925.434 1027.47 928.541 977.078 933.613Z" fill="#505F98"/>
<path d="M794.369 500.326L910.198 264.408L979.185 298.19L863.355 534.108L794.369 500.326Z" fill="white"/>
<path d="M821.214 493.055L835.327 464.22L881.791 486.903L867.678 515.738L821.214 493.055Z" fill="#505F98"/>
<path d="M821.214 493.055L835.327 464.22L881.791 486.903L867.678 515.738L821.214 493.055Z" fill="url(#paint0_linear_7_366)"/>
<path d="M835.329 464.445L849.443 435.61L895.907 458.293L881.794 487.128L835.329 464.445Z" fill="#505F98"/>
<path d="M835.329 464.445L849.443 435.61L895.907 458.293L881.794 487.128L835.329 464.445Z" fill="url(#paint1_linear_7_366)"/>
<path d="M849.426 435.826L863.54 406.991L910.004 429.674L895.89 458.509L849.426 435.826Z" fill="#505F98"/>
<path d="M849.426 435.826L863.54 406.991L910.004 429.674L895.89 458.509L849.426 435.826Z" fill="url(#paint2_linear_7_366)"/>
<path d="M863.563 407.237L877.676 378.402L924.14 401.085L910.027 429.92L863.563 407.237Z" fill="#505F98"/>
<path d="M863.563 407.237L877.676 378.402L924.14 401.085L910.027 429.92L863.563 407.237Z" fill="url(#paint3_linear_7_366)"/>
<path d="M877.668 378.599L891.782 349.764L938.246 372.447L924.133 401.282L877.668 378.599Z" fill="#505F98"/>
<path d="M891.784 350.01L905.897 321.175L952.362 343.858L938.248 372.693L891.784 350.01Z" fill="#505F98"/>
<path d="M905.881 321.391L919.994 292.556L966.458 315.239L952.345 344.074L905.881 321.391Z" fill="#505F98"/>
<path d="M890.196 353.598L904.309 324.763L950.774 347.446L936.66 376.281L890.196 353.598Z" fill="url(#paint4_linear_7_366)"/>
<path d="M904.321 324.97L918.434 296.135L964.898 318.817L950.785 347.652L904.321 324.97Z" fill="url(#paint5_linear_7_366)"/>
<rect x="1204.84" y="818" width="98.0679" height="82" fill="#505F98"/>
<rect x="1204.84" y="818" width="98.0679" height="82" fill="url(#paint6_linear_7_366)"/>
<rect x="996.693" y="476" width="518.359" height="355" rx="9.37" fill="#505F98"/>
<path opacity="0.65" d="M1498.04 505.438V799.562C1498.06 804.443 1496.13 809.129 1492.69 812.588C1489.25 816.047 1484.58 817.994 1479.7 818H1028.04C1023.16 817.989 1018.49 816.04 1015.06 812.582C1011.62 809.125 1009.69 804.441 1009.7 799.562V505.438C1009.69 500.559 1011.62 495.875 1015.06 492.418C1018.49 488.96 1023.16 487.011 1028.04 487H1479.7C1484.58 487.006 1489.25 488.953 1492.69 492.412C1496.13 495.871 1498.06 500.557 1498.04 505.438Z" fill="url(#paint7_linear_7_366)"/>
<rect x="1159.81" y="890" width="206.143" height="21" fill="#505F98"/>
<rect x="1204.84" y="878" width="98.0679" height="12" fill="url(#paint8_linear_7_366)"/>
<path fill-rule="evenodd" clip-rule="evenodd" d="M1359.94 304.241V324.715L1347.24 324.819C1346 334.346 1342.38 343.41 1336.7 351.181L1347.55 362.351L1332.67 376.6L1321.99 365.578C1315.4 370.062 1307.96 373.17 1300.13 374.714V388H1279.56V375.029C1270.77 373.76 1262.4 370.497 1255.09 365.494L1246.15 374.316L1231.59 359.647L1240.46 350.993C1234.88 343.219 1231.31 334.191 1230.09 324.715H1215.84V304.241H1230.6C1232.43 296.093 1236.02 288.441 1241.14 281.819L1232.9 273.332L1247.78 259.082L1256.21 267.82C1263.18 263.214 1271.1 260.228 1279.39 259.082V245H1299.96V259.396C1308.33 261.055 1316.24 264.493 1323.15 269.476L1333.68 259.166L1348.16 273.709L1337.62 284.187C1341.76 290.267 1344.69 297.073 1346.27 304.241H1359.94ZM1253.8 317.15C1253.78 336.211 1269.3 351.682 1288.47 351.705C1297.69 351.733 1306.53 348.113 1313.05 341.644C1319.57 335.176 1323.24 326.392 1323.23 317.233C1323.25 298.172 1307.73 282.701 1288.56 282.678C1269.39 282.655 1253.83 298.088 1253.8 317.15Z" fill="#505F98"/>
<path fill-rule="evenodd" clip-rule="evenodd" d="M1436 338.354L1435.08 350.396L1427.57 349.938C1426.44 355.475 1423.94 360.641 1420.28 364.958L1426.15 372.021L1416.8 379.729L1411.04 372.792C1406.98 375.13 1402.5 376.625 1397.85 377.188L1397.24 385L1385.2 384.104L1385.79 376.479C1380.7 375.344 1375.95 373.056 1371.89 369.792L1366.26 374.583L1358.39 365.396L1363.96 360.688C1361.03 355.876 1359.35 350.414 1359.06 344.792L1350.94 344.167L1351.84 332.146L1360.45 332.792C1361.88 328.085 1364.31 323.743 1367.57 320.062L1363.13 314.708L1372.47 307L1377 312.5C1381.27 310.095 1386.03 308.672 1390.92 308.333L1391.55 300L1403.59 300.896L1402.94 309.375C1407.75 310.714 1412.21 313.081 1416.01 316.312L1422.62 310.708L1430.47 319.896L1423.79 325.583C1425.96 329.339 1427.37 333.477 1427.96 337.771L1436 338.354ZM1373.3 341.243C1372.45 352.436 1380.84 362.203 1392.05 363.062C1397.44 363.487 1402.78 361.747 1406.89 358.228C1410.99 354.708 1413.52 349.7 1413.92 344.312C1414.76 333.119 1406.36 323.361 1395.15 322.514C1383.93 321.666 1374.16 330.05 1373.3 341.243Z" fill="#505F98"/>
<path d="M1498.04 505.513V512H1009.7V505.513C1009.69 500.614 1011.62 495.912 1015.06 492.44C1018.5 488.968 1023.17 487.011 1028.04 487H1479.7C1484.58 487.006 1489.25 488.961 1492.69 492.434C1496.13 495.907 1498.06 500.613 1498.04 505.513Z" fill="url(#paint9_linear_7_366)"/>
<rect x="1019.71" y="544" width="47.0326" height="227" fill="url(#paint10_linear_7_366)"/>
<rect x="1137.79" y="560" width="221.153" height="209" fill="url(#paint11_linear_7_366)"/>
<rect x="1188.83" y="658" width="7.00485" height="9" fill="url(#paint12_linear_7_366)"/>
<rect x="1188.83" y="616" width="7.00485" height="9" fill="url(#paint13_linear_7_366)"/>
<rect x="1093.76" y="658" width="7.00485" height="9" fill="url(#paint14_linear_7_366)"/>
<rect x="1093.76" y="616" width="7.00485" height="9" fill="url(#paint15_linear_7_366)"/>
<rect x="1188.83" y="571" width="7.00485" height="9" fill="url(#paint16_linear_7_366)"/>
<rect x="1094.76" y="571" width="7.00485" height="9" fill="url(#paint17_linear_7_366)"/>
<rect x="1142.79" y="571" width="7.00485" height="9" fill="url(#paint18_linear_7_366)"/>
<rect x="1142.79" y="658" width="7.00485" height="9" fill="url(#paint19_linear_7_366)"/>
<path fill-rule="evenodd" clip-rule="evenodd" d="M1106.77 656H1184.82V583H1106.77V656ZM1176.96 648.282H1114.63V590.656H1176.96V648.282Z" fill="#505F98"/>
<path fill-rule="evenodd" clip-rule="evenodd" d="M1106.77 656H1184.82V583H1106.77V656ZM1176.96 648.282H1114.63V590.656H1176.96V648.282Z" fill="url(#paint20_linear_7_366)"/>
<rect x="1390.97" y="524" width="100.069" height="100" fill="url(#paint21_linear_7_366)"/>
<rect x="1390.97" y="634" width="100.069" height="100" fill="url(#paint22_linear_7_366)"/>
<rect opacity="0.65" x="1019.71" y="543" width="47.0326" height="13" fill="url(#paint23_linear_7_366)"/>
<path d="M816.673 474.827L1021.8 310.293L1069.91 370.118L864.785 534.652L816.673 474.827Z" fill="white"/>
<path d="M845.396 479.455L870.464 459.235L903.046 499.522L877.979 519.742L845.396 479.455Z" fill="#505F98"/>
<path d="M845.396 479.455L870.464 459.235L903.046 499.522L877.979 519.742L845.396 479.455Z" fill="url(#paint24_linear_7_366)"/>
<path d="M869.014 459.689L894.047 439.56L926.481 479.79L901.449 499.919L869.014 459.689Z" fill="#505F98"/>
<path d="M869.014 459.689L894.047 439.56L926.481 479.79L901.449 499.919L869.014 459.689Z" fill="url(#paint25_linear_7_366)"/>
<path d="M893.958 439.761L918.99 419.633L951.425 459.863L926.393 479.991L893.958 439.761Z" fill="#505F98"/>
<path d="M893.958 439.761L918.99 419.633L951.425 459.863L926.393 479.991L893.958 439.761Z" fill="url(#paint26_linear_7_366)"/>
<path d="M918.886 419.847L943.918 399.718L976.353 439.948L951.321 460.077L918.886 419.847Z" fill="#505F98"/>
<path d="M918.886 419.847L943.918 399.718L976.353 439.948L951.321 460.077L918.886 419.847Z" fill="url(#paint27_linear_7_366)"/>
<path d="M945.006 399.389L970.073 379.169L1002.66 419.456L977.588 439.676L945.006 399.389Z" fill="#505F98"/>
<path d="M970.086 378.99L995.154 358.77L1027.74 399.057L1002.67 419.277L970.086 378.99Z" fill="#505F98"/>
<path d="M993.693 360.051L1018.73 339.923L1051.16 380.153L1026.13 400.281L993.693 360.051Z" fill="#505F98"/>
<path d="M1023.71 403.218L1002.61 420L970.675 379.782L991.774 363L1023.71 403.218Z" fill="url(#paint28_linear_7_366)"/>
<path d="M990.736 362.648L1015.77 342.519L1048.2 382.749L1023.17 402.878L990.736 362.648Z" fill="url(#paint29_linear_7_366)"/>
<path d="M939.653 484.15V607H918.639V484.15C918.639 479.61 921.457 475.57 925.657 474.089V461.825C925.657 459.712 927.333 458 929.4 458C931.468 458 933.144 459.712 933.144 461.825V474.297C937.063 475.935 939.632 479.823 939.653 484.15Z" fill="#505F98"/>
<path d="M939.653 484.15V607H918.639V484.15C918.639 479.61 921.457 475.57 925.657 474.089V461.825C925.657 459.712 927.333 458 929.4 458C931.468 458 933.144 459.712 933.144 461.825V474.297C937.063 475.935 939.632 479.823 939.653 484.15Z" fill="url(#paint30_linear_7_366)"/>
<rect x="905.63" y="562" width="50.0346" height="9" rx="2.245" fill="#505F98"/>
<path d="M930.335 644C921.763 644 914.636 631.185 914.636 622.634V566H945.658V622.634C945.658 631.185 938.887 644 930.335 644Z" fill="#505F98"/>
<rect x="905.63" y="562" width="50.0346" height="9" rx="2.245" fill="url(#paint31_linear_7_366)"/>
<path d="M930.335 644C921.763 644 914.636 631.366 914.636 622.937V571H945.658V622.937C945.658 631.366 938.887 644 930.335 644Z" fill="url(#paint32_linear_7_366)"/>
<path d="M1130.43 704C1129.75 700.436 1129.33 695.39 1130.62 695.043C1133.35 694.275 1130.43 704 1130.43 704Z" fill="#28353D"/>
<path d="M1273.69 899.507C1273.2 912.102 1263.44 958.388 1263.12 971.004C1263.12 975.202 1264.24 981.647 1262.89 985.698C1260.1 994.284 1250.21 993.108 1248.92 988.049L1248.44 985.53C1243.85 961.012 1251.22 933.198 1248.44 901.186C1246.77 881.643 1238.99 843.963 1233.9 843.711C1231.21 843.711 1169.96 972.851 1164.63 980.807C1162.01 984.817 1154.64 984.187 1151.07 987.42C1147.49 990.652 1180.82 889.515 1194.78 836.07C1198.04 825.039 1200.17 813.709 1201.12 802.252C1201.5 795.64 1199.37 793.415 1205.48 791.463C1209.7 790.119 1215.56 790.497 1220.08 790.182C1225 789.804 1270.79 789.72 1270.79 792.953C1270.35 810.502 1274.87 870.412 1273.69 899.507Z" fill="#606161"/>
<path d="M1273.69 899.507C1273.2 912.102 1263.44 958.388 1263.12 971.004C1263.12 975.202 1264.24 981.647 1262.89 985.698C1260.1 994.284 1250.21 993.108 1248.92 988.049L1248.44 985.53C1243.85 961.012 1251.22 933.198 1248.44 901.186C1246.77 881.643 1238.99 843.963 1233.9 843.711C1231.21 843.711 1169.96 972.851 1164.63 980.807C1162.01 984.817 1154.64 984.187 1151.07 987.42C1147.49 990.652 1180.82 889.515 1194.78 836.07C1198.04 825.039 1200.17 813.709 1201.12 802.252C1201.5 795.64 1199.37 793.415 1205.48 791.463C1209.7 790.119 1215.56 790.497 1220.08 790.182C1225 789.804 1270.79 789.72 1270.79 792.953C1270.35 810.502 1274.87 870.412 1273.69 899.507Z" fill="url(#paint33_linear_7_366)"/>
<path d="M1219.61 631.148C1219.23 627.163 1217.35 625 1215.51 625C1213.67 625 1212.53 627.12 1212.92 631.148C1213 634.122 1215.25 636.597 1218.22 637C1220.08 637 1220.02 635.134 1219.61 631.148Z" fill="#FFCD9C"/>
<path d="M1252.01 631.159C1252.26 627.166 1254.09 625 1255.99 625C1257.89 625 1259.12 627.124 1258.83 631.159C1258.81 634.173 1256.56 636.687 1253.61 637C1251.74 637 1251.72 635.152 1252.01 631.159Z" fill="#FFCD9C"/>
<path d="M1255.73 648.672C1255.47 650.777 1246.56 660 1236.41 660C1226.27 660 1217.89 651.577 1216.12 648.208C1214.35 644.839 1221.48 601.505 1225.6 597.884C1229.72 594.262 1246.43 596.641 1247.83 598.558C1251.2 603.085 1256.83 640.27 1255.73 648.672Z" fill="#F4AD7D"/>
<path d="M1251.54 615.977C1250.16 616.639 1244.74 602.842 1243.61 600.525C1242.47 598.208 1242.65 595.829 1244.03 595.167C1245.41 594.505 1247.44 595.871 1248.58 598.167C1249.71 600.463 1252.9 615.336 1251.54 615.977Z" fill="#FFCD9C"/>
<path d="M1221.17 614.987C1219.74 614.501 1223.53 600.179 1224.35 597.703C1225.18 595.228 1227.03 593.599 1228.38 594.086C1229.73 594.573 1230.29 596.984 1229.47 599.481C1228.64 601.977 1222.52 615.474 1221.17 614.987Z" fill="#FFCD9C"/>
<path d="M1226.85 647H1248.61L1251.87 667.622C1240.01 674.005 1233.1 673.301 1223.85 666.214L1226.85 647Z" fill="#F4AD7D"/>
<path d="M1235.86 651.13C1235.86 650.75 1236.76 650.43 1237.86 650.43C1238.96 650.43 1239.86 650.75 1239.86 651.13C1239.86 651.51 1238.98 651.57 1237.86 651.57C1236.74 651.57 1235.86 651.53 1235.86 651.13Z" fill="#F4AD7D"/>
<path d="M1256.89 641.808C1257.72 636.894 1259.06 601.708 1255.76 597.051C1252.47 592.394 1232.74 589.381 1229.75 590.108C1223.05 591.731 1224.22 596.517 1224.22 596.517C1222.23 596.547 1220.28 597.084 1218.56 598.076C1216.26 599.615 1211.43 621.79 1215.29 638.56C1217.02 646.102 1223.85 652.66 1235.65 652.981C1250.17 653.365 1255.89 647.896 1256.89 641.808Z" fill="#606161"/>
<path d="M1229.83 591.762C1231.39 590.448 1233.41 589.828 1235.43 590.041C1241.56 590.008 1247.65 591.14 1253.36 593.376C1256.54 594.488 1259.41 596.311 1261.78 598.708C1264.17 601.173 1265.27 604.627 1264.75 608.034C1263.7 613.047 1258.44 616.148 1256.71 620.97C1255.32 624.837 1256.31 628.575 1256.35 632.463C1256.38 635.606 1256.16 638.746 1255.68 641.852C1254.71 647.906 1249.18 653.344 1234.97 652.983C1223.52 652.664 1216.88 646.143 1215.2 638.644C1212.92 626.198 1213.52 613.389 1216.95 601.215C1223.12 602.648 1229.43 603.361 1235.77 603.339C1242.48 603.395 1249.18 602.611 1255.7 601.002C1256.82 607.503 1256.8 620.524 1256.44 630.253" fill="#606161"/>
<path d="M1194.7 663.954C1191.27 664.241 1187.96 665.384 1185.08 667.28C1180.14 671.171 1179.76 678.43 1179.85 684.748C1179.68 693.501 1180.28 702.252 1181.66 710.897C1183.14 718.826 1185.83 726.441 1188.04 734.202C1191.52 746.831 1193.34 759.862 1193.47 772.966C1193.47 780.162 1193.35 788.07 1197.83 793.697C1202.72 799.806 1211.39 800.998 1219.18 801.438C1230.24 802.086 1241.35 802.17 1252.41 801.709C1259.83 801.375 1267.72 800.643 1273.6 796.082C1278.29 792.442 1289.27 669.288 1280.75 666.171C1272.22 663.054 1263.06 662.259 1254.02 661.506C1233.74 659.791 1214.66 658.431 1194.7 663.954Z" fill="#505F98"/>
<path d="M1258.52 919.291C1257.43 933.255 1254.84 984 1254.84 984L1248.24 983.77C1243.7 959.39 1251 931.732 1248.24 899.899C1246.59 880.465 1238.89 842.996 1233.86 842.746C1235.36 830.221 1243.83 832.1 1243.83 832.1C1249.98 841.294 1255.29 851.026 1259.69 861.178C1264.73 874.37 1259.63 905.263 1258.52 919.291Z" fill="url(#paint34_linear_7_366)"/>
<path d="M1134.16 985.024C1133.13 985.786 1132.35 986.83 1131.91 988.025C1131.68 989.009 1131.77 990.04 1132.18 990.965C1133.35 993.326 1135.56 995.019 1138.17 995.55C1140.74 996.04 1143.38 996.131 1145.99 995.818L1154.33 995.262C1156.45 995.212 1158.56 994.873 1160.58 994.255C1162.61 993.627 1164.29 992.198 1165.21 990.308C1165.7 988.916 1165.9 987.438 1165.78 985.969C1165.78 979.164 1163.36 973.634 1155.81 975.299C1147.9 976.765 1140.47 980.102 1134.16 985.024Z" fill="#505F98"/>
<path d="M1272.7 988.063C1273.65 988.759 1274.37 989.709 1274.77 990.797C1274.98 991.682 1274.9 992.611 1274.53 993.446C1273.47 995.584 1271.44 997.114 1269.05 997.579C1266.69 998.035 1264.27 998.121 1261.89 997.834L1254.32 997.325C1252.39 997.284 1250.48 996.985 1248.64 996.435C1246.78 995.864 1245.25 994.566 1244.41 992.853C1243.97 991.595 1243.79 990.26 1243.89 988.932C1243.89 982.785 1246.07 977.72 1253.01 979.288C1260.21 980.619 1266.96 983.63 1272.7 988.063Z" fill="#505F98"/>
<path d="M1281.89 666C1281.89 666 1314.61 685.163 1324.43 709.389C1334.26 733.614 1292.25 792 1292.25 792L1283.26 782.814C1283.26 782.814 1305.19 738.759 1301.8 727.74C1298.41 716.721 1285.13 706.452 1285.13 706.452L1281.89 666Z" fill="#505F98"/>
<path d="M1188.83 703.859C1188.83 703.859 1143.34 724.24 1124.85 714.238C1106.37 704.237 1125.4 654 1125.4 654L1137.78 658.202C1137.78 658.202 1127.43 683.815 1139.27 687.618C1151.1 691.421 1186.56 666.438 1186.56 666.438L1188.83 703.859Z" fill="#505F98"/>
<path d="M1274.47 790.976C1273.16 791.826 1272.1 792.968 1271.38 794.297C1270.95 795.425 1270.8 796.629 1270.93 797.819C1270.85 800.709 1272.16 803.479 1274.51 805.367C1276.16 806.25 1278.01 806.76 1279.9 806.857C1281.07 807.048 1282.26 807.048 1283.42 806.857C1284.61 806.646 1285.6 805.888 1286.05 804.844C1286.21 804.183 1286.27 803.507 1286.25 802.831C1286.4 799.51 1288.9 796.793 1290.97 794.076C1291.47 793.551 1291.79 792.9 1291.9 792.204C1291.89 791.434 1291.6 790.69 1291.08 790.091C1289.68 788.199 1286.2 784.717 1283.42 785.018C1280.64 785.32 1276.62 789.326 1274.47 790.976Z" fill="#F4AD7D"/>
<path d="M1145.59 646.435C1146.18 645.611 1146.58 644.679 1146.77 643.698C1146.92 642.683 1146.39 641.687 1145.43 641.211C1143.92 640.647 1142.11 642.13 1140.62 641.504C1140.11 641.235 1139.69 640.846 1139.39 640.375C1137.63 637.945 1136.61 635.093 1136.47 632.143C1136.55 630.571 1136.41 628.995 1136.03 627.463C1135.58 625.886 1134 624.849 1132.29 625.018C1130.89 625.331 1130.1 626.689 1129.22 627.776C1128.34 628.863 1126.58 630.158 1125.44 631.516C1123.49 634.307 1122.37 637.55 1122.21 640.898C1121.59 645.077 1121.2 649.861 1124.27 652.87C1126.65 655.189 1133.87 657.927 1137.19 656.694C1140.86 655.315 1143.74 649.444 1145.59 646.435Z" fill="#F4AD7D"/>
</g>
<defs>
<linearGradient id="paint0_linear_7_366" x1="945.402" y1="560.166" x2="1010.16" y2="431.6" gradientUnits="userSpaceOnUse">
<stop stop-color="#010101" stop-opacity="0.01"/>
<stop offset="0.95" stop-color="#010101"/>
</linearGradient>
<linearGradient id="paint1_linear_7_366" x1="1000.56" y1="556.365" x2="1093.42" y2="374.775" gradientUnits="userSpaceOnUse">
<stop stop-color="#010101" stop-opacity="0.01"/>
<stop offset="0.95" stop-color="#010101"/>
</linearGradient>
<linearGradient id="paint2_linear_7_366" x1="1120.55" y1="565.092" x2="1257.9" y2="254.948" gradientUnits="userSpaceOnUse">
<stop stop-color="#010101" stop-opacity="0.01"/>
<stop offset="0.95" stop-color="#010101"/>
</linearGradient>
<linearGradient id="paint3_linear_7_366" x1="1248.38" y1="581.583" x2="1453.31" y2="134.179" gradientUnits="userSpaceOnUse">
<stop stop-color="#010101" stop-opacity="0.01"/>
<stop offset="0.36" stop-color="#010101" stop-opacity="0.36"/>
<stop offset="0.95" stop-color="#010101"/>
</linearGradient>
<linearGradient id="paint4_linear_7_366" x1="1099.73" y1="476.564" x2="1216.89" y2="234.969" gradientUnits="userSpaceOnUse">
<stop stop-color="white" stop-opacity="0.01"/>
<stop offset="0.07" stop-color="white" stop-opacity="0.22"/>
<stop offset="0.16" stop-color="white" stop-opacity="0.45"/>
<stop offset="0.25" stop-color="white" stop-opacity="0.65"/>
<stop offset="0.33" stop-color="white" stop-opacity="0.8"/>
<stop offset="0.4" stop-color="white" stop-opacity="0.91"/>
<stop offset="0.46" stop-color="white" stop-opacity="0.98"/>
<stop offset="0.51" stop-color="white"/>
</linearGradient>
<linearGradient id="paint5_linear_7_366" x1="1021.65" y1="423.444" x2="1085.85" y2="287.555" gradientUnits="userSpaceOnUse">
<stop stop-color="white" stop-opacity="0.01"/>
<stop offset="0.07" stop-color="white" stop-opacity="0.22"/>
<stop offset="0.16" stop-color="white" stop-opacity="0.45"/>
<stop offset="0.25" stop-color="white" stop-opacity="0.65"/>
<stop offset="0.33" stop-color="white" stop-opacity="0.8"/>
<stop offset="0.4" stop-color="white" stop-opacity="0.91"/>
<stop offset="0.46" stop-color="white" stop-opacity="0.98"/>
<stop offset="0.51" stop-color="white"/>
</linearGradient>
<linearGradient id="paint6_linear_7_366" x1="1326.97" y1="886.322" x2="1337.39" y2="759.584" gradientUnits="userSpaceOnUse">
<stop stop-color="#010101" stop-opacity="0.01"/>
<stop offset="0.95" stop-color="#010101"/>
</linearGradient>
<linearGradient id="paint7_linear_7_366" x1="925.259" y1="423.517" x2="922.544" y2="873.071" gradientUnits="userSpaceOnUse">
<stop stop-color="white" stop-opacity="0.01"/>
<stop offset="0.07" stop-color="white" stop-opacity="0.22"/>
<stop offset="0.16" stop-color="white" stop-opacity="0.45"/>
<stop offset="0.25" stop-color="white" stop-opacity="0.65"/>
<stop offset="0.33" stop-color="white" stop-opacity="0.8"/>
<stop offset="0.4" stop-color="white" stop-opacity="0.91"/>
<stop offset="0.46" stop-color="white" stop-opacity="0.98"/>
<stop offset="0.51" stop-color="white"/>
</linearGradient>
<linearGradient id="paint8_linear_7_366" x1="671.605" y1="861.073" x2="671.705" y2="1003.31" gradientUnits="userSpaceOnUse">
<stop stop-color="#010101" stop-opacity="0.01"/>
<stop offset="0.95" stop-color="#010101"/>
</linearGradient>
<linearGradient id="paint9_linear_7_366" x1="1824.02" y1="606.966" x2="1858.2" y2="199.855" gradientUnits="userSpaceOnUse">
<stop stop-color="white" stop-opacity="0.01"/>
<stop offset="0.07" stop-color="white" stop-opacity="0.22"/>
<stop offset="0.16" stop-color="white" stop-opacity="0.45"/>
<stop offset="0.25" stop-color="white" stop-opacity="0.65"/>
<stop offset="0.33" stop-color="white" stop-opacity="0.8"/>
<stop offset="0.4" stop-color="white" stop-opacity="0.91"/>
<stop offset="0.46" stop-color="white" stop-opacity="0.98"/>
<stop offset="0.51" stop-color="white"/>
</linearGradient>
<linearGradient id="paint10_linear_7_366" x1="997.138" y1="496.87" x2="1135.14" y2="865.142" gradientUnits="userSpaceOnUse">
<stop stop-color="white" stop-opacity="0.01"/>
<stop offset="0.07" stop-color="white" stop-opacity="0.22"/>
<stop offset="0.16" stop-color="white" stop-opacity="0.45"/>
<stop offset="0.25" stop-color="white" stop-opacity="0.65"/>
<stop offset="0.33" stop-color="white" stop-opacity="0.8"/>
<stop offset="0.4" stop-color="white" stop-opacity="0.91"/>
<stop offset="0.46" stop-color="white" stop-opacity="0.98"/>
<stop offset="0.51" stop-color="white"/>
</linearGradient>
<linearGradient id="paint11_linear_7_366" x1="1100.67" y1="519.99" x2="1097.34" y2="802.698" gradientUnits="userSpaceOnUse">
<stop stop-color="white" stop-opacity="0.01"/>
<stop offset="0.07" stop-color="white" stop-opacity="0.22"/>
<stop offset="0.16" stop-color="white" stop-opacity="0.45"/>
<stop offset="0.25" stop-color="white" stop-opacity="0.65"/>
<stop offset="0.33" stop-color="white" stop-opacity="0.8"/>
<stop offset="0.4" stop-color="white" stop-opacity="0.91"/>
<stop offset="0.46" stop-color="white" stop-opacity="0.98"/>
<stop offset="0.51" stop-color="white"/>
</linearGradient>
<linearGradient id="paint12_linear_7_366" x1="1416.5" y1="711.704" x2="1435.69" y2="133.785" gradientUnits="userSpaceOnUse">
<stop stop-color="#010101" stop-opacity="0.01"/>
<stop offset="0.95" stop-color="#010101"/>
</linearGradient>
<linearGradient id="paint13_linear_7_366" x1="1415.65" y1="712.045" x2="1434.84" y2="134.125" gradientUnits="userSpaceOnUse">
<stop stop-color="#010101" stop-opacity="0.01"/>
<stop offset="0.95" stop-color="#010101"/>
</linearGradient>
<linearGradient id="paint14_linear_7_366" x1="1321.47" y1="709.354" x2="1340.69" y2="131.435" gradientUnits="userSpaceOnUse">
<stop stop-color="#010101" stop-opacity="0.01"/>
<stop offset="0.95" stop-color="#010101"/>
</linearGradient>
<linearGradient id="paint15_linear_7_366" x1="1320.62" y1="709.694" x2="1339.84" y2="131.776" gradientUnits="userSpaceOnUse">
<stop stop-color="#010101" stop-opacity="0.01"/>
<stop offset="0.95" stop-color="#010101"/>
</linearGradient>
<linearGradient id="paint16_linear_7_366" x1="1414.71" y1="713.545" x2="1433.93" y2="135.627" gradientUnits="userSpaceOnUse">
<stop stop-color="#010101" stop-opacity="0.01"/>
<stop offset="0.95" stop-color="#010101"/>
</linearGradient>
<linearGradient id="paint17_linear_7_366" x1="1320.68" y1="711.236" x2="1339.87" y2="133.317" gradientUnits="userSpaceOnUse">
<stop stop-color="#010101" stop-opacity="0.01"/>
<stop offset="0.95" stop-color="#010101"/>
</linearGradient>
<linearGradient id="paint18_linear_7_366" x1="1368.67" y1="712.396" x2="1387.89" y2="134.499" gradientUnits="userSpaceOnUse">
<stop stop-color="#010101" stop-opacity="0.01"/>
<stop offset="0.95" stop-color="#010101"/>
</linearGradient>
<linearGradient id="paint19_linear_7_366" x1="1370.49" y1="709.843" x2="1389.7" y2="131.925" gradientUnits="userSpaceOnUse">
<stop stop-color="#010101" stop-opacity="0.01"/>
<stop offset="0.95" stop-color="#010101"/>
</linearGradient>
<linearGradient id="paint20_linear_7_366" x1="1025.41" y1="724.399" x2="1257.64" y2="941.094" gradientUnits="userSpaceOnUse">
<stop stop-color="white" stop-opacity="0.01"/>
<stop offset="0.07" stop-color="white" stop-opacity="0.22"/>
<stop offset="0.16" stop-color="white" stop-opacity="0.45"/>
<stop offset="0.25" stop-color="white" stop-opacity="0.65"/>
<stop offset="0.33" stop-color="white" stop-opacity="0.8"/>
<stop offset="0.4" stop-color="white" stop-opacity="0.91"/>
<stop offset="0.46" stop-color="white" stop-opacity="0.98"/>
<stop offset="0.51" stop-color="white"/>
</linearGradient>
<linearGradient id="paint21_linear_7_366" x1="1374.28" y1="504.864" x2="1372.49" y2="640.026" gradientUnits="userSpaceOnUse">
<stop stop-color="white" stop-opacity="0.01"/>
<stop offset="0.07" stop-color="white" stop-opacity="0.22"/>
<stop offset="0.16" stop-color="white" stop-opacity="0.45"/>
<stop offset="0.25" stop-color="white" stop-opacity="0.65"/>
<stop offset="0.33" stop-color="white" stop-opacity="0.8"/>
<stop offset="0.4" stop-color="white" stop-opacity="0.91"/>
<stop offset="0.46" stop-color="white" stop-opacity="0.98"/>
<stop offset="0.51" stop-color="white"/>
</linearGradient>
<linearGradient id="paint22_linear_7_366" x1="1374.28" y1="614.864" x2="1372.49" y2="750.026" gradientUnits="userSpaceOnUse">
<stop stop-color="white" stop-opacity="0.01"/>
<stop offset="0.07" stop-color="white" stop-opacity="0.22"/>
<stop offset="0.16" stop-color="white" stop-opacity="0.45"/>
<stop offset="0.25" stop-color="white" stop-opacity="0.65"/>
<stop offset="0.33" stop-color="white" stop-opacity="0.8"/>
<stop offset="0.4" stop-color="white" stop-opacity="0.91"/>
<stop offset="0.46" stop-color="white" stop-opacity="0.98"/>
<stop offset="0.51" stop-color="white"/>
</linearGradient>
<linearGradient id="paint23_linear_7_366" x1="1010.44" y1="540.281" x2="1010.42" y2="558.481" gradientUnits="userSpaceOnUse">
<stop stop-color="white" stop-opacity="0.01"/>
<stop offset="0.07" stop-color="white" stop-opacity="0.22"/>
<stop offset="0.16" stop-color="white" stop-opacity="0.45"/>
<stop offset="0.25" stop-color="white" stop-opacity="0.65"/>
<stop offset="0.33" stop-color="white" stop-opacity="0.8"/>
<stop offset="0.4" stop-color="white" stop-opacity="0.91"/>
<stop offset="0.46" stop-color="white" stop-opacity="0.98"/>
<stop offset="0.51" stop-color="white"/>
</linearGradient>
<linearGradient id="paint24_linear_7_366" x1="929.737" y1="593.052" x2="1043.17" y2="503.635" gradientUnits="userSpaceOnUse">
<stop stop-color="#010101" stop-opacity="0.01"/>
<stop offset="0.95" stop-color="#010101"/>
</linearGradient>
<linearGradient id="paint25_linear_7_366" x1="979.575" y1="612.988" x2="1140.85" y2="487.867" gradientUnits="userSpaceOnUse">
<stop stop-color="#010101" stop-opacity="0.01"/>
<stop offset="0.95" stop-color="#010101"/>
</linearGradient>
<linearGradient id="paint26_linear_7_366" x1="1084.52" y1="671.751" x2="1340.68" y2="449.028" gradientUnits="userSpaceOnUse">
<stop stop-color="#010101" stop-opacity="0.01"/>
<stop offset="0.95" stop-color="#010101"/>
</linearGradient>
<linearGradient id="paint27_linear_7_366" x1="1193.28" y1="740.865" x2="1568.96" y2="422.45" gradientUnits="userSpaceOnUse">
<stop stop-color="#010101" stop-opacity="0.01"/>
<stop offset="0.36" stop-color="#010101" stop-opacity="0.36"/>
<stop offset="0.95" stop-color="#010101"/>
</linearGradient>
<linearGradient id="paint28_linear_7_366" x1="1041.54" y1="503.751" x2="1224.48" y2="372.322" gradientUnits="userSpaceOnUse">
<stop stop-color="white" stop-opacity="0.01"/>
<stop offset="0.07" stop-color="white" stop-opacity="0.22"/>
<stop offset="0.16" stop-color="white" stop-opacity="0.45"/>
<stop offset="0.25" stop-color="white" stop-opacity="0.65"/>
<stop offset="0.33" stop-color="white" stop-opacity="0.8"/>
<stop offset="0.4" stop-color="white" stop-opacity="0.91"/>
<stop offset="0.46" stop-color="white" stop-opacity="0.98"/>
<stop offset="0.51" stop-color="white"/>
</linearGradient>
<linearGradient id="paint29_linear_7_366" x1="1055.15" y1="501.517" x2="1171.01" y2="405.658" gradientUnits="userSpaceOnUse">
<stop stop-color="white" stop-opacity="0.01"/>
<stop offset="0.07" stop-color="white" stop-opacity="0.22"/>
<stop offset="0.16" stop-color="white" stop-opacity="0.45"/>
<stop offset="0.25" stop-color="white" stop-opacity="0.65"/>
<stop offset="0.33" stop-color="white" stop-opacity="0.8"/>
<stop offset="0.4" stop-color="white" stop-opacity="0.91"/>
<stop offset="0.46" stop-color="white" stop-opacity="0.98"/>
<stop offset="0.51" stop-color="white"/>
</linearGradient>
<linearGradient id="paint30_linear_7_366" x1="920.738" y1="667.745" x2="958.923" y2="667.767" gradientUnits="userSpaceOnUse">
<stop stop-color="white" stop-opacity="0.01"/>
<stop offset="0.07" stop-color="white" stop-opacity="0.22"/>
<stop offset="0.16" stop-color="white" stop-opacity="0.45"/>
<stop offset="0.25" stop-color="white" stop-opacity="0.65"/>
<stop offset="0.33" stop-color="white" stop-opacity="0.8"/>
<stop offset="0.4" stop-color="white" stop-opacity="0.91"/>
<stop offset="0.46" stop-color="white" stop-opacity="0.98"/>
<stop offset="0.51" stop-color="white"/>
</linearGradient>
<linearGradient id="paint31_linear_7_366" x1="847.446" y1="570.2" x2="859.097" y2="608.932" gradientUnits="userSpaceOnUse">
<stop stop-color="#010101" stop-opacity="0.01"/>
<stop offset="0.95" stop-color="#010101"/>
</linearGradient>
<linearGradient id="paint32_linear_7_366" x1="872.244" y1="718.933" x2="973.146" y2="720.976" gradientUnits="userSpaceOnUse">
<stop stop-color="#010101" stop-opacity="0.01"/>
<stop offset="0.95" stop-color="#010101"/>
</linearGradient>
<linearGradient id="paint33_linear_7_366" x1="1275.02" y1="876.512" x2="1178.92" y2="711.732" gradientUnits="userSpaceOnUse">
<stop stop-color="#010101" stop-opacity="0.01"/>
<stop offset="0.95" stop-color="#010101"/>
</linearGradient>
<linearGradient id="paint34_linear_7_366" x1="1276.04" y1="414.892" x2="1103.15" y2="419.761" gradientUnits="userSpaceOnUse">
<stop stop-color="#010101" stop-opacity="0.01"/>
<stop offset="0.95" stop-color="#010101"/>
</linearGradient>
<clipPath id="clip0_7_366">
<rect width="1440" height="1024" fill="white"/>
</clipPath>
</defs>
</svg>
