<svg width="1440" height="1024" viewBox="0 0 1440 1024" fill="none" xmlns="http://www.w3.org/2000/svg">
<g clip-path="url(#clip0_3_366)">
<rect width="1440" height="1024" fill="white"/>
<path opacity="0.5" d="M208.381 364.871C989.105 476.345 1956.81 364.871 1956.81 364.871C1956.81 364.871 2593.05 1429.91 1956.81 1274.12C1320.58 1118.32 691.629 1319.78 208.381 1274.12C-274.866 1228.45 -572.342 253.398 208.381 364.871Z" fill="#E7ECFF"/>
<path fill-rule="evenodd" clip-rule="evenodd" d="M1350.64 463.385V475.268L1343.26 475.329C1342.54 480.858 1340.44 486.119 1337.15 490.63L1343.45 497.113L1334.81 505.383L1328.61 498.986C1324.78 501.588 1320.47 503.392 1315.92 504.289V512H1303.98V504.471C1298.88 503.735 1294.02 501.841 1289.78 498.937L1284.59 504.058L1276.14 495.544L1281.29 490.52C1278.05 486.008 1275.98 480.768 1275.27 475.268H1267V463.385H1275.56C1276.62 458.656 1278.71 454.214 1281.68 450.37L1276.9 445.444L1285.53 437.174L1290.43 442.245C1294.47 439.572 1299.07 437.838 1303.88 437.174V429H1315.82V437.356C1320.68 438.318 1325.27 440.314 1329.28 443.206L1335.4 437.222L1343.8 445.663L1337.68 451.745C1340.08 455.274 1341.78 459.224 1342.7 463.385H1350.64ZM1289.03 470.877C1289.02 481.941 1298.03 490.92 1309.16 490.934C1314.5 490.95 1319.64 488.849 1323.42 485.094C1327.21 481.34 1329.33 476.242 1329.33 470.926C1329.34 459.862 1320.33 450.883 1309.2 450.869C1298.08 450.856 1289.05 459.814 1289.03 470.877Z" fill="#505F98"/>
<path fill-rule="evenodd" clip-rule="evenodd" d="M1440.1 366.241V386.715L1427.39 386.819C1426.15 396.346 1422.53 405.41 1416.85 413.181L1427.71 424.351L1412.83 438.6L1402.14 427.578C1395.55 432.062 1388.12 435.17 1380.28 436.714V450H1359.71V437.029C1350.93 435.76 1342.56 432.497 1335.24 427.494L1326.31 436.316L1311.74 421.647L1320.62 412.993C1315.03 405.219 1311.47 396.191 1310.25 386.715H1296V366.241H1310.75C1312.58 358.093 1316.18 350.441 1321.29 343.819L1313.05 335.332L1327.93 321.082L1336.36 329.82C1343.33 325.214 1351.26 322.228 1359.55 321.082V307H1380.12V321.396C1388.48 323.055 1396.39 326.493 1403.3 331.476L1413.84 321.166L1428.32 335.709L1417.78 346.187C1421.91 352.267 1424.84 359.073 1426.42 366.241H1440.1ZM1333.96 379.15C1333.94 398.211 1349.46 413.682 1368.63 413.705C1377.84 413.733 1386.68 410.113 1393.21 403.644C1399.73 397.176 1403.39 388.392 1403.38 379.233C1403.41 360.172 1387.89 344.701 1368.71 344.678C1349.54 344.655 1333.98 360.088 1333.96 379.15Z" fill="#505F98"/>
<path fill-rule="evenodd" clip-rule="evenodd" d="M72.0998 696.241V716.715L59.3907 716.819C58.1544 726.346 54.5307 735.41 48.8524 743.181L59.7068 754.351L44.8268 768.6L34.1411 757.578C27.5523 762.062 20.1169 765.17 12.2848 766.714V780H-8.28585V767.029C-17.0703 765.76 -25.4431 762.497 -32.7556 757.494L-41.692 766.316L-56.2559 751.647L-47.3827 742.993C-52.9691 735.219 -56.5317 726.191 -57.7523 716.715H-72V696.241H-57.2465C-55.4175 688.093 -51.8209 680.441 -46.7082 673.819L-54.9491 665.332L-40.0692 651.082L-31.6386 659.82C-24.6683 655.214 -16.7443 652.228 -8.45446 651.082V637H12.1162V651.396C20.4849 653.055 28.3938 656.493 35.3003 661.476L45.8385 651.166L60.3181 665.709L49.7798 676.187C53.9115 682.267 56.8439 689.073 58.4212 696.241H72.0998ZM-34.0412 709.15C-34.0645 728.211 -18.5419 743.682 0.629501 743.705C9.84107 743.733 18.6847 740.113 25.2062 733.644C31.7277 727.176 35.3902 718.392 35.3846 709.233C35.4079 690.172 19.8852 674.701 0.713821 674.678C-18.4576 674.655 -34.0179 690.088 -34.0412 709.15Z" fill="#505F98"/>
</g>
<defs>
<clipPath id="clip0_3_366">
<rect width="1440" height="1024" fill="white"/>
</clipPath>
</defs>
</svg>
